<svg width="35" height="35" viewBox="0 0 35 35" fill="none" xmlns="http://www.w3.org/2000/svg">
<g clip-path="url(#clip0_60_198)">
<path d="M34.337 10.3619V29.3167C34.337 31.0608 32.922 32.4758 31.1779 32.4758H3.79877C2.05467 32.4758 0.639648 31.0608 0.639648 29.3167V10.3619C0.639648 8.61779 2.05467 7.20277 3.79877 7.20277H9.59051L10.4 5.03745C10.8607 3.80671 12.0388 2.9906 13.3551 2.9906H21.6149C22.9312 2.9906 24.1093 3.80671 24.57 5.03745L25.3861 7.20277H31.1779C32.922 7.20277 34.337 8.61779 34.337 10.3619ZM25.3861 19.8393C25.3861 15.4823 21.8453 11.9415 17.4883 11.9415C13.1314 11.9415 9.59051 15.4823 9.59051 19.8393C9.59051 24.1962 13.1314 27.7371 17.4883 27.7371C21.8453 27.7371 25.3861 24.1962 25.3861 19.8393ZM23.2801 19.8393C23.2801 23.0313 20.6804 25.631 17.4883 25.631C14.2963 25.631 11.6966 23.0313 11.6966 19.8393C11.6966 16.6472 14.2963 14.0475 17.4883 14.0475C20.6804 14.0475 23.2801 16.6472 23.2801 19.8393Z" fill="white"/>
</g>
<defs>
<clipPath id="clip0_60_198">
<rect width="33.6973" height="33.6973" fill="white" transform="translate(0.639648 0.884521)"/>
</clipPath>
</defs>
</svg>
