<svg width="33" height="32" viewBox="0 0 33 32" fill="none" xmlns="http://www.w3.org/2000/svg">
<path d="M16.5304 0.0078125C25.2163 0.0078125 32.2559 7.0474 32.2559 15.7332C32.2559 24.4191 25.2163 31.4587 16.5304 31.4587C7.84459 31.4587 0.805002 24.4191 0.805002 15.7332C0.805002 7.0474 7.84459 0.0078125 16.5304 0.0078125ZM11.6162 10.819C10.5296 10.819 9.65117 11.6975 9.65117 12.7847C9.65117 13.872 10.5296 14.7504 11.6162 14.7504C12.7029 14.7504 13.5831 13.872 13.5831 12.7847C13.5831 11.6975 12.7035 10.819 11.6162 10.819ZM21.4999 10.819C20.4133 10.819 19.533 11.6975 19.533 12.7847C19.533 13.872 20.4133 14.7504 21.4999 14.7504C22.5866 14.7504 23.465 13.872 23.465 12.7847C23.465 11.6975 22.5319 10.819 21.4999 10.819ZM9.47856 21.274C11.2292 23.3748 13.7969 24.5235 16.5304 24.5235C19.264 24.5235 21.8298 23.3226 23.5823 21.2212C24.4171 20.2199 22.9097 18.9668 22.073 19.9619C20.6952 21.6671 18.6804 22.607 16.5304 22.607C14.3805 22.607 12.3644 21.6598 10.9897 20.0135C10.1665 19.0196 8.64929 20.2727 9.47856 21.274Z" fill="white"/>
</svg>
