<svg width="47" height="30" viewBox="0 0 47 30" fill="none" xmlns="http://www.w3.org/2000/svg">
<rect x="0.496094" y="0.162231" width="46.053" height="29.2044" rx="14.6022" fill="#49494A"/>
<path d="M25.3732 10.9186H12.9304C12.6543 10.9186 12.3894 11.0239 12.1942 11.2113C11.9989 11.3988 11.8892 11.653 11.8892 11.9181V19.8182C11.8892 20.0833 11.9989 20.3375 12.1941 20.5249C12.3894 20.7124 12.6542 20.8177 12.9304 20.8177H16.7836C16.9312 20.8177 17.0728 20.874 17.1771 20.9742C17.2815 21.0744 17.3401 21.2103 17.3401 21.352V23.2166C17.3401 23.3303 17.3744 23.4416 17.4389 23.537C17.5034 23.6324 17.5952 23.7079 17.7034 23.7543C17.8116 23.8007 17.9314 23.816 18.0485 23.7984C18.1655 23.7808 18.2747 23.731 18.363 23.6551L21.4213 21.0239C21.5756 20.8911 21.7756 20.8177 21.9828 20.8176H25.3731C25.6493 20.8176 25.9141 20.7123 26.1094 20.5248C26.3046 20.3374 26.4143 20.0832 26.4143 19.8181V11.9181C26.4143 11.653 26.3046 11.3988 26.1094 11.2113C25.9141 11.0239 25.6493 10.9186 25.3732 10.9186ZM19.1517 17.5345H15.0586C14.9898 17.5361 14.9213 17.5244 14.8572 17.5003C14.7932 17.4761 14.7348 17.4399 14.6855 17.3937C14.6363 17.3476 14.5971 17.2924 14.5704 17.2316C14.5437 17.1707 14.5299 17.1053 14.5299 17.0392C14.5299 16.9731 14.5437 16.9077 14.5704 16.8468C14.5971 16.7859 14.6363 16.7308 14.6855 16.6846C14.7348 16.6385 14.7932 16.6023 14.8572 16.5781C14.9213 16.5539 14.9898 16.5423 15.0586 16.5439H19.1517C19.2205 16.5423 19.289 16.5539 19.3531 16.5781C19.4171 16.6023 19.4755 16.6385 19.5248 16.6846C19.574 16.7308 19.6132 16.7859 19.6399 16.8468C19.6666 16.9077 19.6804 16.9731 19.6804 17.0392C19.6804 17.1053 19.6666 17.1707 19.6399 17.2316C19.6132 17.2924 19.574 17.3476 19.5248 17.3937C19.4755 17.4399 19.4171 17.4761 19.3531 17.5003C19.289 17.5244 19.2205 17.5361 19.1517 17.5345ZM23.2453 17.5345H21.6489C21.5801 17.5361 21.5117 17.5244 21.4476 17.5003C21.3835 17.4761 21.3252 17.4399 21.2759 17.3937C21.2266 17.3476 21.1875 17.2924 21.1608 17.2316C21.134 17.1707 21.1203 17.1053 21.1203 17.0392C21.1203 16.9731 21.134 16.9077 21.1608 16.8468C21.1875 16.7859 21.2266 16.7308 21.2759 16.6846C21.3252 16.6385 21.3835 16.6023 21.4476 16.5781C21.5117 16.5539 21.5801 16.5423 21.6489 16.5439H23.2453C23.3799 16.5471 23.508 16.6006 23.6021 16.6932C23.6961 16.7857 23.7488 16.9099 23.7488 17.0392C23.7488 17.1685 23.6961 17.2927 23.6021 17.3852C23.508 17.4778 23.3799 17.5313 23.2453 17.5345ZM23.2453 15.0251H15.0586C14.9898 15.0267 14.9213 15.0151 14.8572 14.9909C14.7932 14.9667 14.7348 14.9305 14.6855 14.8844C14.6363 14.8382 14.5971 14.7831 14.5704 14.7222C14.5437 14.6613 14.5299 14.5959 14.5299 14.5298C14.5299 14.4637 14.5437 14.3983 14.5704 14.3374C14.5971 14.2765 14.6363 14.2214 14.6855 14.1752C14.7348 14.1291 14.7932 14.0929 14.8572 14.0687C14.9213 14.0445 14.9898 14.0329 15.0586 14.0345H23.2453C23.3799 14.0377 23.508 14.0912 23.6021 14.1838C23.6961 14.2763 23.7488 14.4005 23.7488 14.5298C23.7488 14.6591 23.6961 14.7833 23.6021 14.8758C23.508 14.9684 23.3799 15.0219 23.2453 15.0251Z" fill="white"/>
<path d="M33.2371 3.74815H20.7944C20.6576 3.74815 20.5222 3.774 20.3959 3.82423C20.2696 3.87447 20.1548 3.94809 20.0581 4.04091C19.9614 4.13373 19.8847 4.24392 19.8324 4.36519C19.7801 4.48646 19.7532 4.61643 19.7532 4.7477V9.92776H25.3733C25.923 9.92839 26.4499 10.1383 26.8386 10.5114C27.2273 10.8845 27.446 11.3904 27.4466 11.9181V14.5456L29.7003 16.4846C29.7885 16.5605 29.8977 16.6102 30.0147 16.6278C30.1318 16.6454 30.2516 16.6301 30.3598 16.5837C30.468 16.5374 30.5599 16.4619 30.6243 16.3665C30.6888 16.2711 30.7231 16.1598 30.7231 16.0461V14.1815C30.7231 14.1113 30.7375 14.0418 30.7655 13.977C30.7934 13.9122 30.8344 13.8533 30.8861 13.8037C30.9378 13.7541 30.9991 13.7147 31.0666 13.6879C31.1342 13.661 31.2065 13.6472 31.2796 13.6472H33.2371C33.3739 13.6472 33.5093 13.6213 33.6356 13.5711C33.7619 13.5209 33.8767 13.4472 33.9734 13.3544C34.0701 13.2616 34.1468 13.1514 34.1991 13.0301C34.2514 12.9089 34.2784 12.7789 34.2784 12.6476V4.7477C34.2784 4.61643 34.2514 4.48646 34.1991 4.36519C34.1468 4.24392 34.0701 4.13373 33.9734 4.04091C33.8767 3.94809 33.7619 3.87447 33.6356 3.82423C33.5093 3.774 33.3739 3.74815 33.2371 3.74815ZM31.1092 10.318H28.3911C28.3223 10.3196 28.2538 10.308 28.1898 10.2838C28.1257 10.2597 28.0673 10.2234 28.0181 10.1773C27.9688 10.1311 27.9297 10.076 27.9029 10.0151C27.8762 9.95421 27.8625 9.8888 27.8625 9.82273C27.8625 9.75665 27.8762 9.69125 27.9029 9.63036C27.9297 9.56947 27.9688 9.51432 28.0181 9.46817C28.0673 9.42202 28.1257 9.3858 28.1898 9.36163C28.2538 9.33746 28.3223 9.32584 28.3911 9.32745H31.1092C31.178 9.32584 31.2464 9.33746 31.3105 9.36163C31.3746 9.3858 31.4329 9.42202 31.4822 9.46817C31.5315 9.51432 31.5706 9.56947 31.5973 9.63036C31.6241 9.69125 31.6378 9.75665 31.6378 9.82273C31.6378 9.8888 31.6241 9.95421 31.5973 10.0151C31.5706 10.076 31.5315 10.1311 31.4822 10.1773C31.4329 10.2234 31.3746 10.2597 31.3105 10.2838C31.2464 10.308 31.178 10.3196 31.1092 10.318ZM31.1092 7.88422H22.9225C22.8537 7.88583 22.7852 7.87421 22.7211 7.85004C22.6571 7.82587 22.5987 7.78965 22.5494 7.7435C22.5002 7.69735 22.461 7.6422 22.4343 7.58131C22.4076 7.52042 22.3938 7.45502 22.3938 7.38894C22.3938 7.32286 22.4076 7.25746 22.4343 7.19657C22.461 7.13568 22.5002 7.08053 22.5494 7.03438C22.5987 6.98823 22.6571 6.95201 22.7211 6.92784C22.7852 6.90367 22.8537 6.89205 22.9225 6.89366H31.1092C31.178 6.89205 31.2464 6.90367 31.3105 6.92784C31.3746 6.95201 31.4329 6.98823 31.4822 7.03438C31.5315 7.08053 31.5706 7.13568 31.5973 7.19657C31.6241 7.25746 31.6378 7.32286 31.6378 7.38894C31.6378 7.45502 31.6241 7.52042 31.5973 7.58131C31.5706 7.6422 31.5315 7.69735 31.4822 7.7435C31.4329 7.78965 31.3746 7.82587 31.3105 7.85004C31.2464 7.87421 31.178 7.88583 31.1092 7.88422Z" fill="white"/>
</svg>
