<svg width="37" height="37" viewBox="0 0 37 37" fill="none" xmlns="http://www.w3.org/2000/svg">
<path d="M17.6401 31.4169L19.2283 33.0052L32.7073 19.5262C36.241 15.9925 36.241 10.2392 32.7073 6.70551C29.1713 3.16953 23.4225 3.16953 19.8866 6.70551L5.28437 21.3077C2.36843 24.2236 2.36843 28.966 5.28437 31.8819C6.74009 33.3376 8.65635 34.07 10.5726 34.07C12.4889 34.07 14.4029 33.3399 15.8608 31.8819L29.3398 18.403C30.4518 17.291 31.0628 15.8128 31.0628 14.2402C31.0628 12.6677 30.4518 11.1895 29.3375 10.0752C27.1135 7.85122 23.2338 7.85122 21.0098 10.0752L8.6541 22.4309L10.2424 24.0192L22.5981 11.6635C23.9707 10.2909 26.3767 10.2909 27.7493 11.6635C28.4367 12.3509 28.8163 13.2653 28.8163 14.2402C28.8163 15.2152 28.4367 16.1295 27.7493 16.8147L14.2703 30.2937C12.2305 32.3335 8.91245 32.3335 6.87264 30.2937C4.83283 28.2538 4.83283 24.9358 6.87264 22.896L21.4748 8.29378C24.1347 5.63393 28.4592 5.63393 31.119 8.29378C33.7788 10.9536 33.7788 15.2781 31.119 17.938L17.6401 31.4169Z" fill="white"/>
</svg>
