<svg width="39" height="39" viewBox="0 0 39 39" fill="none" xmlns="http://www.w3.org/2000/svg">
<path d="M19.8753 3.02496C16.6157 3.02496 13.9827 5.82211 13.9827 9.25327V20.7775C13.9827 24.2087 16.6157 27.0058 19.8753 27.0058C23.1349 27.0058 25.768 24.2087 25.768 20.7775V9.25327C25.768 5.82211 23.1349 3.02496 19.8753 3.02496ZM24.5745 20.7775C24.5745 23.5523 22.4636 25.8124 19.8753 25.8124C17.287 25.8124 15.1761 23.5523 15.1761 20.7775V9.25327C15.1761 6.4785 17.287 4.21841 19.8753 4.21841C22.4636 4.21841 24.5745 6.4785 24.5745 9.25327V20.7775Z" fill="white"/>
<path d="M28.1548 14.9594V20.9043C28.1548 25.3946 24.4402 29.0496 19.9498 29.0496C15.4595 29.0496 11.7449 25.3946 11.7449 20.9043V14.9594H10.3276V20.9043C10.3276 25.9168 14.2809 30.0491 19.2785 30.4146V35.0988H13.8334V36.4415H25.8425V35.0988H20.6957V30.4146C25.6187 30.0491 29.4228 25.9168 29.4228 20.9043V14.9594H28.1548Z" fill="white"/>
</svg>
