<svg width="47" height="30" viewBox="0 0 47 30" fill="none" xmlns="http://www.w3.org/2000/svg">
<rect x="0.471191" y="0.162231" width="46.053" height="29.2044" rx="14.6022" fill="#49494A"/>
<path d="M30.9418 10.5751C30.8983 10.4689 30.8452 10.3675 30.7728 10.2807L26.7283 5.85482C26.6366 5.75346 26.5256 5.68106 26.4049 5.61832C26.2649 5.54592 26.1105 5.51697 25.9464 5.51697H18.2289C17.6304 5.51697 17.1333 6.02857 17.1333 6.67049V22.8487C17.1333 23.4955 17.6304 24.0505 18.2289 24.0505H29.962C30.5605 24.0505 31.0335 23.4955 31.0335 22.8487V11.0674C31.0335 10.8936 31.0093 10.7247 30.9418 10.5751ZM19.45 11.0288C19.45 10.9564 19.5369 10.9274 19.6141 10.9274H23.0312C23.1084 10.9274 23.1664 10.9564 23.1664 11.0288V11.55C23.1664 11.6176 23.1133 11.6996 23.0312 11.6996H19.6141C19.5369 11.6996 19.45 11.6176 19.45 11.55V11.0288ZM19.45 17.2066C19.45 17.1342 19.5369 17.1053 19.6141 17.1053H25.512C25.5892 17.1053 25.6278 17.1342 25.6278 17.2066V17.7279C25.6278 17.7954 25.5941 17.8775 25.512 17.8775H19.6141C19.5369 17.8775 19.45 17.7954 19.45 17.7279V17.2066ZM27.1723 20.8168C27.1723 20.8844 27.1385 20.9664 27.0565 20.9664H19.6141C19.5369 20.9664 19.45 20.8844 19.45 20.8168V20.2955C19.45 20.2231 19.5369 20.1942 19.6141 20.1942H27.0565C27.1337 20.1942 27.1723 20.2231 27.1723 20.2955V20.8168ZM28.7168 14.6389C28.7168 14.7065 28.683 14.7886 28.6009 14.7886H19.6141C19.5369 14.7886 19.45 14.7065 19.45 14.6389V14.1177C19.45 14.0453 19.5369 14.0163 19.6141 14.0163H28.6009C28.6782 14.0163 28.7168 14.0453 28.7168 14.1177V14.6389ZM26.4532 10.9757C26.1829 10.9757 25.9174 10.7247 25.9174 10.4303V7.24483L29.3539 10.9757H26.4532Z" fill="white"/>
</svg>
