<svg width="47" height="31" viewBox="0 0 47 31" fill="none" xmlns="http://www.w3.org/2000/svg">
<rect x="0.140503" y="0.915771" width="46.053" height="29.2044" rx="14.6022" fill="#49494A"/>
<path d="M17.6619 14.0652C17.6619 9.35457 20.1958 7.75219 22.5655 7.39504C22.5655 7.37091 22.5607 7.34677 22.5607 7.31781C22.5607 6.72416 23.0868 6.25117 23.7287 6.25117C24.3706 6.25117 24.8774 6.72416 24.8774 7.31781C24.8774 7.34677 24.8774 7.37091 24.8726 7.39504C27.2472 7.75702 29.7956 9.36423 29.7956 14.0748C29.7956 19.5673 31.1614 20.1562 32.9955 21.7006H14.4619C16.2863 20.1513 17.6619 19.5577 17.6619 14.0652Z" fill="white"/>
<path d="M23.7191 24.7847C22.4256 24.7847 21.3638 23.8243 21.2238 22.7093H26.2144C26.0792 23.8243 25.0126 24.7847 23.7191 24.7847Z" fill="white"/>
</svg>
