<svg width="47" height="31" viewBox="0 0 47 31" fill="none" xmlns="http://www.w3.org/2000/svg">
<rect x="0.0625" y="0.915771" width="46.053" height="29.2044" rx="14.6022" fill="#49494A"/>
<path d="M27.3619 5.88578C26.0153 4.90332 24.4973 4.56487 22.5728 4.56487C21.1136 4.56487 19.8649 4.85161 18.8758 5.49092C17.4165 6.44517 16.731 8.04812 16.731 10.5818H20.4917C20.4917 9.90491 20.4232 9.1763 20.8345 8.5511C21.2458 7.9259 21.8187 7.44643 22.803 7.44643C23.8019 7.44643 24.3161 7.72377 24.8009 8.29726C25.2122 8.78614 25.3689 9.36903 25.3689 9.98953C25.3689 10.5254 25.0849 11.019 24.747 11.4656C24.561 11.7288 24.3161 11.9638 24.0076 12.1895C24.0076 12.1895 21.9754 13.3506 21.2605 14.4505C20.7268 15.2685 20.5358 16.2932 20.4917 17.5201C20.4868 17.6094 20.5211 17.7928 20.8443 17.7928C21.1626 17.7928 23.5865 17.7928 23.8705 17.7928C24.1545 17.7928 24.2133 17.5859 24.2182 17.5013C24.2378 17.0547 24.2965 16.3684 24.3798 16.1099C24.5414 15.621 24.8548 15.1933 25.3444 14.8266L26.3581 14.1544C27.2738 13.4681 28.0034 12.9087 28.3266 12.4668C28.8799 11.7429 29.2668 10.8498 29.2668 9.7921C29.2668 8.06692 28.6057 6.79302 27.3619 5.88578ZM22.3133 19.6637C21.045 19.6261 19.9971 20.4722 19.9531 21.7931C19.9139 23.1187 20.9079 23.9883 22.1811 24.026C23.5032 24.0636 24.5267 23.2456 24.5658 21.9247C24.605 20.6038 23.6355 19.7013 22.3133 19.6637Z" fill="white"/>
</svg>
