<svg width="25" height="23" viewBox="0 0 25 23" fill="none" xmlns="http://www.w3.org/2000/svg">
<path d="M17.068 13.484C17.7693 12.4485 18.1807 11.22 18.1807 9.89929C18.1807 6.20926 14.9968 3.21686 11.0694 3.21686C7.13743 3.21686 3.95349 6.20926 3.95349 9.89929C3.95349 13.5893 7.13743 16.5817 11.0648 16.5817C12.4908 16.5817 13.8186 16.1868 14.9313 15.5111L15.2539 15.3005L20.3314 20.0655L21.907 18.5606L16.8342 13.7955L17.068 13.484ZM15.0529 6.16538C16.1142 7.16138 16.6986 8.48646 16.6986 9.89491C16.6986 11.3033 16.1142 12.6284 15.0529 13.6244C13.9916 14.6204 12.5796 15.1689 11.0788 15.1689C9.57799 15.1689 8.16602 14.6204 7.10471 13.6244C6.04339 12.6284 5.45897 11.3033 5.45897 9.89491C5.45897 8.48646 6.04339 7.16138 7.10471 6.16538C8.16602 5.16938 9.57799 4.62092 11.0788 4.62092C12.5796 4.62092 13.9916 5.16938 15.0529 6.16538Z" fill="white"/>
</svg>
