<svg width="47" height="31" viewBox="0 0 47 31" fill="none" xmlns="http://www.w3.org/2000/svg">
<rect x="0.101562" y="0.915771" width="46.053" height="29.2044" rx="14.6022" fill="#49494A"/>
<g clip-path="url(#clip0_60_224)">
<path d="M34.1922 17.9891L32.9566 17.2683C31.6181 16.4446 31.6181 14.4883 32.9566 13.6646L34.1922 12.9438C35.2218 12.3261 35.5307 11.0905 34.9129 10.1638L33.8833 8.41342C33.2655 7.38378 32.0299 7.07488 31.1033 7.69267L29.8677 8.41342C28.5292 9.23713 26.7788 8.20749 26.7788 6.66303V5.22153C26.7788 4.08892 25.8521 3.16225 24.7195 3.16225H22.6602C21.5276 3.16225 20.6009 4.08892 20.6009 5.22153V6.56006C20.6009 8.10452 18.8505 9.13417 17.512 8.31045L16.2764 7.69267C15.2468 7.07488 14.0112 7.48674 13.4964 8.41342L12.4668 10.1638C11.9519 11.1934 12.2608 12.429 13.1875 13.0468L14.4231 13.7676C15.7616 14.4883 15.7616 16.5476 14.4231 17.2683L13.1875 17.9891C12.1579 18.6069 11.849 19.8424 12.4668 20.7691L13.4964 22.5195C14.1142 23.5491 15.3498 23.858 16.2764 23.2402L17.512 22.6225C18.8505 21.7988 20.6009 22.8284 20.6009 24.3729V25.8144C20.6009 26.947 21.5276 27.8736 22.6602 27.8736H24.7195C25.8521 27.8736 26.7788 26.947 26.7788 25.8144V24.4758C26.7788 22.9314 28.5292 21.9017 29.8677 22.7254L31.1033 23.4462C32.1329 24.064 33.3685 23.6521 33.8833 22.7254L34.9129 20.975C35.4278 19.8424 35.1189 18.6069 34.1922 17.9891ZM23.6898 19.6365C21.4246 19.6365 19.5713 17.7832 19.5713 15.5179C19.5713 13.2527 21.4246 11.3994 23.6898 11.3994C25.9551 11.3994 27.8084 13.2527 27.8084 15.5179C27.8084 17.7832 25.9551 19.6365 23.6898 19.6365Z" fill="white"/>
</g>
<defs>
<clipPath id="clip0_60_224">
<rect width="24.7114" height="24.7114" fill="white" transform="translate(11.3341 3.16225)"/>
</clipPath>
</defs>
</svg>
