<svg width="47" height="30" viewBox="0 0 47 30" fill="none" xmlns="http://www.w3.org/2000/svg">
<rect x="0.520996" y="0.162231" width="46.053" height="29.2044" rx="14.6022" fill="#49494A"/>
<path d="M27.3035 21.0679H12.3854C11.4158 21.0679 10.6304 20.3139 10.6304 19.3831V7.58947C10.6304 6.65862 11.4158 5.90467 12.3854 5.90467H27.3035C28.2732 5.90467 29.0586 6.65862 29.0586 7.58947V19.3831C29.0586 20.3139 28.2732 21.0679 27.3035 21.0679Z" fill="white"/>
<path d="M30.8137 13.4863H36.9565V8.43188L35.4989 7.80009L30.8137 11.8015V13.4863Z" fill="white"/>
<path d="M36.079 9.27428C36.5636 9.27428 36.9565 8.89713 36.9565 8.43188C36.9565 7.96664 36.5636 7.58949 36.079 7.58949C35.5943 7.58949 35.2014 7.96664 35.2014 8.43188C35.2014 8.89713 35.5943 9.27428 36.079 9.27428Z" fill="white"/>
<path d="M30.8137 13.4863H36.9565V18.5407L35.4989 19.1725L30.8137 15.1711V13.4863Z" fill="white"/>
<path d="M36.079 19.3831C36.5636 19.3831 36.9565 19.0059 36.9565 18.5407C36.9565 18.0754 36.5636 17.6983 36.079 17.6983C35.5943 17.6983 35.2014 18.0754 35.2014 18.5407C35.2014 19.0059 35.5943 19.3831 36.079 19.3831Z" fill="white"/>
</svg>
